<svg xmlns="http://www.w3.org/2000/svg" xmlns:xlink="http://www.w3.org/1999/xlink" aria-hidden="true" role="img" class="component-iconify MuiBox-root css-9uy14h iconify iconify--solar" width="1em" height="1em" viewBox="0 0 24 24"><g transform="matrix(0.85,0,0,0.85,1.8000910580929492,1.7997149426839325)"><path fill="currentColor" fill-rule="evenodd" d="M0 7.23c0-.352.184-.677.485-.857L10.347.456a3.203 3.203 0 0 1 3.307 0l9.861 5.917a1 1 0 0 1 0 1.714l-9.861 5.917a3.208 3.208 0 0 1-3.306 0L.485 8.088A1 1 0 0 1 0 7.231ZM23 19h-2v-2a1 1 0 1 0-2 0v2h-2a1 1 0 1 0 0 2h2v2a1 1 0 1 0 2 0v-2h2a1 1 0 1 0 0-2Zm-10.485 2.914-11-6.6a1 1 0 1 0-1.029 1.715l11 6.6a.998.998 0 1 0 1.029-1.714Zm9.971-11.167-10.485 6.291-10.486-6.291a1 1 0 1 0-1.029 1.715l11 6.6a1 1 0 0 0 1.03 0l11-6.6a1 1 0 1 0-1.029-1.715Z" clip-rule="evenodd" opacity=".5"></path></g></svg>