<svg xmlns="http://www.w3.org/2000/svg" version="1.1" xmlns:xlink="http://www.w3.org/1999/xlink" width="1em" height="1em" x="0" y="0" viewBox="0 0 24 24" style="enable-background:new 0 0 512 512" xml:space="preserve" class=""><g transform="matrix(0.8500000000000001,0,0,0.8500000000000001,1.799999999999999,1.799999999999999)"><path fill="currentColor" fill-rule="evenodd" d="M8 0H4a4 4 0 0 0-4 4v1a4 4 0 0 0 4 4h1v2H3a1 1 0 0 0 0 2h6a1 1 0 0 0 0-2H7V9h1a4 4 0 0 0 4-4V4a4 4 0 0 0-4-4zm2 5a2 2 0 0 1-2 2H4a2 2 0 0 1-2-2V4a2 2 0 0 1 2-2h4a2 2 0 0 1 2 2zm10 6h-2a4 4 0 0 0-4 4v5a4 4 0 0 0 4 4h2a4 4 0 0 0 4-4v-5a4 4 0 0 0-4-4zm2 9a2 2 0 0 1-2 2h-2a2 2 0 0 1-2-2v-5a2 2 0 0 1 2-2h2a2 2 0 0 1 2 2zM14 4a1 1 0 0 1 1-1h2a3 3 0 0 1 3 3v2a1 1 0 0 1-2 0V6a1 1 0 0 0-1-1h-2a1 1 0 0 1-1-1zm-2 16a1 1 0 0 1-1 1H8a3 3 0 0 1-3-3v-2a1 1 0 0 1 2 0v2a1 1 0 0 0 1 1h3a1 1 0 0 1 1 1zm8 0a1 1 0 1 1-1-1 1 1 0 0 1 1 1z" clip-rule="evenodd" opacity=".5"></path><path fill="currentColor" d=""></path></g></svg>