<svg xmlns="http://www.w3.org/2000/svg" version="1.1" xmlns:xlink="http://www.w3.org/1999/xlink" width="1em" height="1em" x="0" y="0" viewBox="0 0 24 24" style="enable-background:new 0 0 512 512" xml:space="preserve" class=""><g transform="matrix(0.85,0,0,0.85,1.8000000000000007,1.8000000000000007)"><path fill="currentColor" fill-rule="evenodd" d="M21 21.5V24H3v-2.5c0-2.395 1.885-4.34 4.247-4.474L10 21.5l2-3 2 3 2.753-4.474C19.115 17.16 21 19.106 21 21.5ZM6.872 4.027c1.529-1.433 3.531-2.141 5.63-2.011 3.924.254 6.999 3.669 6.999 7.774a3.212 3.212 0 0 1-3.209 3.209h-2.406a1.994 1.994 0 0 0-3.91.561 2 2 0 0 0 2 2c.538 0 1.025-.215 1.384-.561h2.932a5.215 5.215 0 0 0 5.209-5.209C21.5 4.634 17.604.342 12.63.021a9.41 9.41 0 0 0-7.126 2.548 9.535 9.535 0 0 0-2.99 6.432h2.003a7.42 7.42 0 0 1 2.355-4.973Zm8.237 6.984.053-.011h1.306a.997.997 0 0 0 .997-.866 5.646 5.646 0 0 0-.091-1.831c-.444-2.079-2.131-3.756-4.213-4.184A5.51 5.51 0 0 0 6.502 9.5a5.48 5.48 0 0 0 1.52 3.792v-.001c.111-2.11 1.841-3.791 3.979-3.791 1.263 0 2.375.597 3.108 1.511Z" clip-rule="evenodd" opacity=".5"></path><path fill="currentColor" d=""></path></g></svg>