<svg xmlns="http://www.w3.org/2000/svg" version="1.1" xmlns:xlink="http://www.w3.org/1999/xlink" width="1em" height="1em" x="0" y="0" viewBox="0 0 24 24" style="enable-background:new 0 0 512 512" xml:space="preserve" class=""><g transform="matrix(0.85,0,0,0.85,1.8000592231750492,1.7999924242176348)"><path fill="currentColor" fill-rule="evenodd" d="M23.405 8.289 15.712.596a2.018 2.018 0 0 0-2.931.073c-1.742 1.954-2.782 4.558-2.782 6.965v.873l-8.861 8.861C.404 18.102 0 19.078 0 20.115s.404 2.014 1.138 2.747c.757.758 1.752 1.137 2.748 1.137s1.989-.379 2.747-1.136l8.862-8.862h.872c2.407 0 5.011-1.04 6.966-2.781A2.01 2.01 0 0 0 24 9.783a2.034 2.034 0 0 0-.594-1.494ZM5.218 21.449a1.892 1.892 0 0 1-2.666 0C2.196 21.093 2 20.62 2 20.116s.196-.977.552-1.333l8.444-8.443 2.666 2.666-8.444 8.444Zm11.148-9.448h-.881l-3.486-3.486v-.881c0-1.93.851-4.036 2.298-5.624l7.694 7.693.01.023C20.403 11.15 18.296 12 16.366 12Zm-5.66 2.707-1 1a.997.997 0 0 1-1.414 0 .999.999 0 0 1 0-1.414l1-1a.999.999 0 1 1 1.414 1.414Z" clip-rule="evenodd" opacity=".5"></path><path fill="currentColor" d=""></path></g></svg>