<svg xmlns="http://www.w3.org/2000/svg" version="1.1" xmlns:xlink="http://www.w3.org/1999/xlink" width="1em" height="1em" x="0" y="0" viewBox="0 0 24 24" style="enable-background:new 0 0 512 512" xml:space="preserve" class=""><g transform="matrix(0.85,0,0,0.85,1.8000000000000007,1.8000000000000007)"><path fill="currentColor" fill-rule="evenodd" d="M22 4h-5V2a2 2 0 0 0-2-2H9a2 2 0 0 0-2 2v2H2v2h2v15a3 3 0 0 0 3 3h10a3 3 0 0 0 3-3V6h2ZM9 2h6v2H9Zm9 19a1 1 0 0 1-1 1H7a1 1 0 0 1-1-1V6h12Z" clip-rule="evenodd" opacity=".5"></path><path fill="currentColor" d=""></path></g></svg>