<svg xmlns="http://www.w3.org/2000/svg" version="1.1" xmlns:xlink="http://www.w3.org/1999/xlink" width="1em" height="1em" x="0" y="0" viewBox="0 0 24 24" style="enable-background:new 0 0 512 512" xml:space="preserve" class=""><g transform="matrix(0.85,0,0,0.85,1.8000000000000007,1.8000000000000007)"><path fill="currentColor" fill-rule="evenodd" d="M15 3a3 3 0 0 0-3-3H0v24h2V13h8v1a3 3 0 0 0 3 3h11V4h-9zM2 2h10a1 1 0 0 1 1 1v8H2zm20 4v9h-9a1 1 0 0 1-1-1v-1h3V6z" clip-rule="evenodd" opacity=".5"></path><path fill="currentColor" d=""></path></g></svg>