<svg xmlns="http://www.w3.org/2000/svg" version="1.1" xmlns:xlink="http://www.w3.org/1999/xlink" width="1em" height="1em" x="0" y="0" viewBox="0 0 24 24" style="enable-background:new 0 0 512 512" xml:space="preserve" class=""><g transform="matrix(0.85,0,0,0.85,1.8000021457672126,1.8000000000000007)"><path fill="currentColor" fill-rule="evenodd" d="M18.414 7.9v1.686a1 1 0 0 0 1.707.707l3.586-3.586a1 1 0 0 0 0-1.414l-3.586-3.586a1 1 0 0 0-1.707.707v2.4c-3.35.732-5.6 2.781-7.51 4.911C8.718 7.316 6.08 5.021 1.83 4.586a5.423 5.423 0 0 0-.33-.039 1.5 1.5 0 0 0-.131 2.994c3.464.3 5.5 2.159 7.549 4.458-2.046 2.3-4.087 4.166-7.552 4.462a1.5 1.5 0 0 0 .134 2.992c.038 0 .073 0 .111-.008C6.84 19 9.649 15.753 12.148 12.86c1.911-2.21 3.644-4.16 6.266-4.96Z" clip-rule="evenodd" opacity=".5"></path><path fill="currentColor" d="M20.121 13.707a1 1 0 0 0-1.707.707v1.7a9.186 9.186 0 0 1-3.452-2 1.466 1.466 0 0 0-2.062.157l-.025.028a1.49 1.49 0 0 0 .165 2.111 11.977 11.977 0 0 0 5.374 2.79v2.391a1 1 0 0 0 1.707.707l3.586-3.586a1 1 0 0 0 0-1.414Z" opacity=".5"></path></g></svg>



