<svg xmlns="http://www.w3.org/2000/svg" version="1.1" xmlns:xlink="http://www.w3.org/1999/xlink" width="1em" height="1em" x="0" y="0" viewBox="0 0 24 24" style="enable-background:new 0 0 512 512" xml:space="preserve" class=""><g transform="matrix(0.85,0,0,0.85,1.8020007133483897,1.799999982117729)"><path fill="currentColor" fill-rule="evenodd" d="M17.024 12a12.231 12.231 0 0 0 3.941-7.029 4.306 4.306 0 0 0-1-3.448A4.378 4.378 0 0 0 16.645 0H7.381a4.38 4.38 0 0 0-3.319 1.524 4.307 4.307 0 0 0-1 3.451A12.2 12.2 0 0 0 7 12a12.2 12.2 0 0 0-3.936 7.025 4.307 4.307 0 0 0 1 3.451A4.38 4.38 0 0 0 7.381 24h9.264a4.378 4.378 0 0 0 3.318-1.523 4.3 4.3 0 0 0 1-3.447A12.23 12.23 0 0 0 17.024 12zm.666 8.519a1.381 1.381 0 0 1-1.045.481H7.381a1.382 1.382 0 0 1-1.046-.48 1.3 1.3 0 0 1-.307-1.048c.337-2.244 1.746-4.363 4.188-6.294a1.5 1.5 0 0 0 0-2.354C7.774 8.892 6.365 6.773 6.028 4.529a1.3 1.3 0 0 1 .307-1.048A1.382 1.382 0 0 1 7.381 3h9.264a1.381 1.381 0 0 1 1.045.481A1.3 1.3 0 0 1 18 4.526c-.335 2.235-1.745 4.354-4.191 6.3a1.5 1.5 0 0 0 0 2.348c2.446 1.946 3.856 4.065 4.191 6.3a1.294 1.294 0 0 1-.31 1.045z" clip-rule="evenodd" opacity=".5"></path><path fill="currentColor" d="m12.836 15.213-.294-.235a.871.871 0 0 0-1.081 0l-.3.238a6.547 6.547 0 0 0-2.1 2.592A.869.869 0 0 0 9.868 19h4.263a.868.868 0 0 0 .8-1.194 6.59 6.59 0 0 0-2.095-2.593z"></path></g></svg>
