<svg xmlns="http://www.w3.org/2000/svg" version="1.1" xmlns:xlink="http://www.w3.org/1999/xlink" width="1em" height="1em" x="0" y="0" viewBox="0 0 24 24" style="enable-background:new 0 0 512 512" xml:space="preserve" class=""><g transform="matrix(0.9999999999999998,0,0,0.9999999999999998,0,3.552713678800501e-15)"><path d="M5.5 7C7.43 7 9 5.43 9 3.5S7.43 0 5.5 0 2 1.57 2 3.5 3.57 7 5.5 7Zm12 10c2.481 0 4.5-2.019 4.5-4.5S19.981 8 17.5 8 13 10.019 13 12.5s2.019 4.5 4.5 4.5Zm-9.067 1.607c.76.762.76 2.023-.013 2.798l-2.199 2.288a.997.997 0 0 1-1.414.028 1 1 0 0 1-.028-1.414L6.035 21H4c-2.206 0-4-1.794-4-4v-1a1 1 0 1 1 2 0v1c0 1.103.897 2 2 2h2.029l-1.25-1.307a1 1 0 0 1 1.442-1.387l2.212 2.301Zm15.526 4.11c-.816-2.777-3.473-4.718-6.459-4.718s-5.643 1.94-6.459 4.718a1 1 0 0 0 .96 1.282h11a1.001 1.001 0 0 0 .959-1.282ZM5.5 8C3.066 8 .882 9.467.063 11.649A.999.999 0 0 0 1 13h9a1 1 0 0 0 .937-1.351C10.119 9.466 7.934 8 5.5 8Z" fill="#676C71" opacity="1" data-original="#000000" class=""></path></g></svg>