<svg xmlns="http://www.w3.org/2000/svg" version="1.1" xmlns:xlink="http://www.w3.org/1999/xlink" width="1em" height="1em" x="0" y="0" viewBox="0 0 24 24" style="enable-background:new 0 0 512 512" xml:space="preserve" class=""><g transform="matrix(0.8500000000000004,0,0,0.8500000000000004,1.7999999999999954,1.7999999999999954)"><path fill="currentColor" fill-rule="evenodd" d="M18 12c-3.309 0-6 2.691-6 6s2.691 6 6 6 6-2.691 6-6-2.691-6-6-6Zm2.207 8.207a.997.997 0 0 1-1.414 0l-1.5-1.5A1 1 0 0 1 17 18v-2.5a1 1 0 0 1 2 0v2.086l1.207 1.207a.999.999 0 0 1 0 1.414ZM10 18a8 8 0 0 1 8-8c1.893 0 3.63.661 5 1.76V5c0-2.757-2.243-5-5-5H5C2.243 0 0 2.243 0 5v9c0 2.757 2.243 5 5 5h5.069A8.047 8.047 0 0 1 10 18Zm-2-6.683V6.72c0-.901.968-1.47 1.755-1.033l4.137 2.299c.81.45.81 1.615 0 2.065L9.755 12.35A1.182 1.182 0 0 1 8 11.317Z" clip-rule="evenodd" opacity=".5"></path><path fill="currentColor" ></path></g></svg>