<svg xmlns="http://www.w3.org/2000/svg" version="1.1" xmlns:xlink="http://www.w3.org/1999/xlink" width="1em" height="1em" x="0" y="0" viewBox="0 0 24 24" style="enable-background:new 0 0 512 512" xml:space="preserve" class=""><g transform="matrix(0.8,0,0,0.8,2.400000012712553,2.3999848654959344)"><path fill="currentColor" fill-rule="evenodd" d="M7.896 16.104a1.5 1.5 0 1 1 2.121-2.121c1.326 1.326 3.64 1.327 4.966 0l4.989-4.989c1.369-1.369 1.369-3.597 0-4.966s-3.597-1.369-4.966 0a1.5 1.5 0 1 1-2.121-2.121 6.518 6.518 0 0 1 9.208 0 6.518 6.518 0 0 1 0 9.208l-4.989 4.989c-1.27 1.27-2.937 1.904-4.604 1.904s-3.335-.635-4.604-1.904Zm-1.384 7.893a6.494 6.494 0 0 0 4.604-1.904 1.5 1.5 0 1 0-2.121-2.121 3.515 3.515 0 0 1-4.966 0 3.516 3.516 0 0 1 0-4.966l4.961-4.961a3.514 3.514 0 0 1 4.966 0 1.5 1.5 0 1 0 2.121-2.121 6.518 6.518 0 0 0-9.208 0l-4.962 4.961a6.518 6.518 0 0 0 0 9.208 6.49 6.49 0 0 0 4.604 1.904Z" clip-rule="evenodd" opacity=".5"></path><path fill="currentColor" ></path></g></svg>
