<svg xmlns="http://www.w3.org/2000/svg" version="1.1" xmlns:xlink="http://www.w3.org/1999/xlink" width="1em" height="1em" x="0" y="0" viewBox="0 0 24 24" style="enable-background:new 0 0 512 512" xml:space="preserve" class=""><g transform="matrix(0.8500000000000004,0,0,0.8500000000000004,1.7999999999999954,1.7999999999999954)"><path fill="currentColor" fill-rule="evenodd" d="M0 3v8h11V0H3a3 3 0 0 0-3 3ZM0 21a3 3 0 0 0 3 3h8V13H0ZM13 13v11h8a3 3 0 0 0 3-3v-8ZM17 11h2V7h4V5h-4V1h-2v4h-4v2h4v4z" clip-rule="evenodd" opacity=".5"></path><path fill="currentColor" ></path></g></svg>